<svg xmlns="http://www.w3.org/2000/svg" style="max-width:2952px" id="mermaidSvgId" width="100%" aria-roledescription="sequence" role="graphics-document document" viewBox="-50 -10 2952 2243"><g><rect width="150" height="65" x="2648.5" y="2157" fill="#eaeaea" stroke="#666" class="actor actor-bottom" name="Attendance" rx="3" ry="3"/><text style="text-anchor:middle;font-size:16px;font-weight:400" x="2723.5" y="2189.5" alignment-baseline="central" class="actor actor-box" dominant-baseline="central"><tspan x="2723.5" dy="0">Attendance</tspan></text></g><g><rect width="151" height="65" x="2394" y="2157" fill="#eaeaea" stroke="#666" class="actor actor-bottom" name="AttendanceService" rx="3" ry="3"/><text style="text-anchor:middle;font-size:16px;font-weight:400" x="2469.5" y="2189.5" alignment-baseline="central" class="actor actor-box" dominant-baseline="central"><tspan x="2469.5" dy="0">AttendanceService</tspan></text></g><g><rect width="150" height="65" x="2194" y="2157" fill="#eaeaea" stroke="#666" class="actor actor-bottom" name="Report" rx="3" ry="3"/><text style="text-anchor:middle;font-size:16px;font-weight:400" x="2269" y="2189.5" alignment-baseline="central" class="actor actor-box" dominant-baseline="central"><tspan x="2269" dy="0">Report</tspan></text></g><g><rect width="159" height="65" x="1956.5" y="2157" fill="#eaeaea" stroke="#666" class="actor actor-bottom" name="PerformanceService" rx="3" ry="3"/><text style="text-anchor:middle;font-size:16px;font-weight:400" x="2036" y="2189.5" alignment-baseline="central" class="actor actor-box" dominant-baseline="central"><tspan x="2036" dy="0">PerformanceService</tspan></text></g><g><rect width="150" height="65" x="1756.5" y="2157" fill="#eaeaea" stroke="#666" class="actor actor-bottom" name="Feedback" rx="3" ry="3"/><text style="text-anchor:middle;font-size:16px;font-weight:400" x="1831.5" y="2189.5" alignment-baseline="central" class="actor actor-box" dominant-baseline="central"><tspan x="1831.5" dy="0">Feedback</tspan></text></g><g><rect width="150" height="65" x="1556.5" y="2157" fill="#eaeaea" stroke="#666" class="actor actor-bottom" name="Assessment" rx="3" ry="3"/><text style="text-anchor:middle;font-size:16px;font-weight:400" x="1631.5" y="2189.5" alignment-baseline="central" class="actor actor-box" dominant-baseline="central"><tspan x="1631.5" dy="0">Assessment</tspan></text></g><g><rect width="153" height="65" x="1243" y="2157" fill="#eaeaea" stroke="#666" class="actor actor-bottom" name="AssessmentService" rx="3" ry="3"/><text style="text-anchor:middle;font-size:16px;font-weight:400" x="1319.5" y="2189.5" alignment-baseline="central" class="actor actor-box" dominant-baseline="central"><tspan x="1319.5" dy="0">AssessmentService</tspan></text></g><g><rect width="150" height="65" x="1043" y="2157" fill="#eaeaea" stroke="#666" class="actor actor-bottom" name="Submission" rx="3" ry="3"/><text style="text-anchor:middle;font-size:16px;font-weight:400" x="1118" y="2189.5" alignment-baseline="central" class="actor actor-box" dominant-baseline="central"><tspan x="1118" dy="0">Submission</tspan></text></g><g><rect width="150" height="65" x="843" y="2157" fill="#eaeaea" stroke="#666" class="actor actor-bottom" name="Course" rx="3" ry="3"/><text style="text-anchor:middle;font-size:16px;font-weight:400" x="918" y="2189.5" alignment-baseline="central" class="actor actor-box" dominant-baseline="central"><tspan x="918" dy="0">Course</tspan></text></g><g><rect width="150" height="65" x="566" y="2157" fill="#eaeaea" stroke="#666" class="actor actor-bottom" name="CourseService" rx="3" ry="3"/><text style="text-anchor:middle;font-size:16px;font-weight:400" x="641" y="2189.5" alignment-baseline="central" class="actor actor-box" dominant-baseline="central"><tspan x="641" dy="0">CourseService</tspan></text></g><g><rect width="150" height="65" x="280" y="2157" fill="#eaeaea" stroke="#666" class="actor actor-bottom" name="UserService" rx="3" ry="3"/><text style="text-anchor:middle;font-size:16px;font-weight:400" x="355" y="2189.5" alignment-baseline="central" class="actor actor-box" dominant-baseline="central"><tspan x="355" dy="0">UserService</tspan></text></g><g><line id="actor47" x1="2723.5" x2="2723.5" y1="65" y2="2157" stroke="#999" stroke-width=".5" class="actor-line 200" name="Attendance"/><g id="root-47"><rect width="150" height="65" x="2648.5" y="0" fill="#eaeaea" stroke="#666" class="actor actor-top" name="Attendance" rx="3" ry="3"/><text style="text-anchor:middle;font-size:16px;font-weight:400" x="2723.5" y="32.5" alignment-baseline="central" class="actor actor-box" dominant-baseline="central"><tspan x="2723.5" dy="0">Attendance</tspan></text></g></g><g><line id="actor46" x1="2469.5" x2="2469.5" y1="65" y2="2157" stroke="#999" stroke-width=".5" class="actor-line 200" name="AttendanceService"/><g id="root-46"><rect width="151" height="65" x="2394" y="0" fill="#eaeaea" stroke="#666" class="actor actor-top" name="AttendanceService" rx="3" ry="3"/><text style="text-anchor:middle;font-size:16px;font-weight:400" x="2469.5" y="32.5" alignment-baseline="central" class="actor actor-box" dominant-baseline="central"><tspan x="2469.5" dy="0">AttendanceService</tspan></text></g></g><g><line id="actor45" x1="2269" x2="2269" y1="65" y2="2157" stroke="#999" stroke-width=".5" class="actor-line 200" name="Report"/><g id="root-45"><rect width="150" height="65" x="2194" y="0" fill="#eaeaea" stroke="#666" class="actor actor-top" name="Report" rx="3" ry="3"/><text style="text-anchor:middle;font-size:16px;font-weight:400" x="2269" y="32.5" alignment-baseline="central" class="actor actor-box" dominant-baseline="central"><tspan x="2269" dy="0">Report</tspan></text></g></g><g><line id="actor44" x1="2036" x2="2036" y1="65" y2="2157" stroke="#999" stroke-width=".5" class="actor-line 200" name="PerformanceService"/><g id="root-44"><rect width="159" height="65" x="1956.5" y="0" fill="#eaeaea" stroke="#666" class="actor actor-top" name="PerformanceService" rx="3" ry="3"/><text style="text-anchor:middle;font-size:16px;font-weight:400" x="2036" y="32.5" alignment-baseline="central" class="actor actor-box" dominant-baseline="central"><tspan x="2036" dy="0">PerformanceService</tspan></text></g></g><g><line id="actor43" x1="1831.5" x2="1831.5" y1="65" y2="2157" stroke="#999" stroke-width=".5" class="actor-line 200" name="Feedback"/><g id="root-43"><rect width="150" height="65" x="1756.5" y="0" fill="#eaeaea" stroke="#666" class="actor actor-top" name="Feedback" rx="3" ry="3"/><text style="text-anchor:middle;font-size:16px;font-weight:400" x="1831.5" y="32.5" alignment-baseline="central" class="actor actor-box" dominant-baseline="central"><tspan x="1831.5" dy="0">Feedback</tspan></text></g></g><g><line id="actor42" x1="1631.5" x2="1631.5" y1="65" y2="2157" stroke="#999" stroke-width=".5" class="actor-line 200" name="Assessment"/><g id="root-42"><rect width="150" height="65" x="1556.5" y="0" fill="#eaeaea" stroke="#666" class="actor actor-top" name="Assessment" rx="3" ry="3"/><text style="text-anchor:middle;font-size:16px;font-weight:400" x="1631.5" y="32.5" alignment-baseline="central" class="actor actor-box" dominant-baseline="central"><tspan x="1631.5" dy="0">Assessment</tspan></text></g></g><g><line id="actor41" x1="1319.5" x2="1319.5" y1="65" y2="2157" stroke="#999" stroke-width=".5" class="actor-line 200" name="AssessmentService"/><g id="root-41"><rect width="153" height="65" x="1243" y="0" fill="#eaeaea" stroke="#666" class="actor actor-top" name="AssessmentService" rx="3" ry="3"/><text style="text-anchor:middle;font-size:16px;font-weight:400" x="1319.5" y="32.5" alignment-baseline="central" class="actor actor-box" dominant-baseline="central"><tspan x="1319.5" dy="0">AssessmentService</tspan></text></g></g><g><line id="actor40" x1="1118" x2="1118" y1="65" y2="2157" stroke="#999" stroke-width=".5" class="actor-line 200" name="Submission"/><g id="root-40"><rect width="150" height="65" x="1043" y="0" fill="#eaeaea" stroke="#666" class="actor actor-top" name="Submission" rx="3" ry="3"/><text style="text-anchor:middle;font-size:16px;font-weight:400" x="1118" y="32.5" alignment-baseline="central" class="actor actor-box" dominant-baseline="central"><tspan x="1118" dy="0">Submission</tspan></text></g></g><g><line id="actor39" x1="918" x2="918" y1="65" y2="2157" stroke="#999" stroke-width=".5" class="actor-line 200" name="Course"/><g id="root-39"><rect width="150" height="65" x="843" y="0" fill="#eaeaea" stroke="#666" class="actor actor-top" name="Course" rx="3" ry="3"/><text style="text-anchor:middle;font-size:16px;font-weight:400" x="918" y="32.5" alignment-baseline="central" class="actor actor-box" dominant-baseline="central"><tspan x="918" dy="0">Course</tspan></text></g></g><g><line id="actor38" x1="641" x2="641" y1="65" y2="2157" stroke="#999" stroke-width=".5" class="actor-line 200" name="CourseService"/><g id="root-38"><rect width="150" height="65" x="566" y="0" fill="#eaeaea" stroke="#666" class="actor actor-top" name="CourseService" rx="3" ry="3"/><text style="text-anchor:middle;font-size:16px;font-weight:400" x="641" y="32.5" alignment-baseline="central" class="actor actor-box" dominant-baseline="central"><tspan x="641" dy="0">CourseService</tspan></text></g></g><g><line id="actor37" x1="355" x2="355" y1="65" y2="2157" stroke="#999" stroke-width=".5" class="actor-line 200" name="UserService"/><g id="root-37"><rect width="150" height="65" x="280" y="0" fill="#eaeaea" stroke="#666" class="actor actor-top" name="UserService" rx="3" ry="3"/><text style="text-anchor:middle;font-size:16px;font-weight:400" x="355" y="32.5" alignment-baseline="central" class="actor actor-box" dominant-baseline="central"><tspan x="355" dy="0">UserService</tspan></text></g></g><g><line id="actor36" x1="75" x2="75" y1="80" y2="2157" stroke="#999" stroke-width=".5" class="actor-line 200" name="Student"/></g><style>#mermaidSvgId{font-family:&quot;trebuchet ms&quot;,verdana,arial,sans-serif;font-size:16px;fill:#000000;}#mermaidSvgId .error-icon{fill:#552222;}#mermaidSvgId .error-text{fill:#552222;stroke:#552222;}#mermaidSvgId .edge-thickness-normal{stroke-width:1px;}#mermaidSvgId .edge-thickness-thick{stroke-width:3.5px;}#mermaidSvgId .edge-pattern-solid{stroke-dasharray:0;}#mermaidSvgId .edge-thickness-invisible{stroke-width:0;fill:none;}#mermaidSvgId .edge-pattern-dashed{stroke-dasharray:3;}#mermaidSvgId .edge-pattern-dotted{stroke-dasharray:2;}#mermaidSvgId .marker{fill:#666;stroke:#666;}#mermaidSvgId .marker.cross{stroke:#666;}#mermaidSvgId svg{font-family:&quot;trebuchet ms&quot;,verdana,arial,sans-serif;font-size:16px;}#mermaidSvgId p{margin:0;}#mermaidSvgId .actor{stroke:hsl(0, 0%, 83%);fill:#eee;}#mermaidSvgId text.actor&gt;tspan{fill:#333;stroke:none;}#mermaidSvgId .actor-line{stroke:hsl(0, 0%, 83%);}#mermaidSvgId .messageLine0{stroke-width:1.5;stroke-dasharray:none;stroke:#333;}#mermaidSvgId .messageLine1{stroke-width:1.5;stroke-dasharray:2,2;stroke:#333;}#mermaidSvgId #arrowhead path{fill:#333;stroke:#333;}#mermaidSvgId .sequenceNumber{fill:white;}#mermaidSvgId #sequencenumber{fill:#333;}#mermaidSvgId #crosshead path{fill:#333;stroke:#333;}#mermaidSvgId .messageText{fill:#333;stroke:none;}#mermaidSvgId .labelBox{stroke:hsl(0, 0%, 83%);fill:#eee;}#mermaidSvgId .labelText,#mermaidSvgId .labelText&gt;tspan{fill:#333;stroke:none;}#mermaidSvgId .loopText,#mermaidSvgId .loopText&gt;tspan{fill:#333;stroke:none;}#mermaidSvgId .loopLine{stroke-width:2px;stroke-dasharray:2,2;stroke:hsl(0, 0%, 83%);fill:hsl(0, 0%, 83%);}#mermaidSvgId .note{stroke:#999;fill:#666;}#mermaidSvgId .noteText,#mermaidSvgId .noteText&gt;tspan{fill:#fff;stroke:none;}#mermaidSvgId .activation0{fill:#f4f4f4;stroke:#666;}#mermaidSvgId .activation1{fill:#f4f4f4;stroke:#666;}#mermaidSvgId .activation2{fill:#f4f4f4;stroke:#666;}#mermaidSvgId .actorPopupMenu{position:absolute;}#mermaidSvgId .actorPopupMenuPanel{position:absolute;fill:#eee;box-shadow:0px 8px 16px 0px rgba(0,0,0,0.2);filter:drop-shadow(3px 5px 2px rgb(0 0 0 / 0.4));}#mermaidSvgId .actor-man line{stroke:hsl(0, 0%, 83%);fill:#eee;}#mermaidSvgId .actor-man circle,#mermaidSvgId line{stroke:hsl(0, 0%, 83%);fill:#eee;stroke-width:2px;}#mermaidSvgId :root{--mermaid-font-family:&quot;trebuchet ms&quot;,verdana,arial,sans-serif;}</style><defs><symbol id="computer" width="24" height="24"><path d="M2 2v13h20v-13h-20zm18 11h-16v-9h16v9zm-10.228 6l.466-1h3.524l.467 1h-4.457zm14.228 3h-24l2-6h2.104l-1.33 4h18.45l-1.297-4h2.073l2 6zm-5-10h-14v-7h14v7z" transform="scale(.5)"/></symbol></defs><defs><symbol id="database" fill-rule="evenodd" clip-rule="evenodd"><path d="M12.258.001l.256.004.255.005.253.008.251.01.249.012.247.015.246.016.242.019.241.02.239.023.236.024.233.027.231.028.229.031.225.032.223.034.22.036.217.038.214.04.211.041.208.043.205.045.201.046.198.048.194.05.191.051.187.053.183.054.18.056.175.057.172.059.168.06.163.061.16.063.155.064.15.066.074.033.073.033.071.034.07.034.069.035.068.035.067.035.066.035.064.036.064.036.062.036.06.036.06.037.058.037.058.037.055.038.055.038.053.038.052.038.051.039.05.039.048.039.047.039.045.04.044.04.043.04.041.04.04.041.039.041.037.041.036.041.034.041.033.042.032.042.03.042.029.042.027.042.026.043.024.043.023.043.021.043.02.043.018.044.017.043.015.044.013.044.012.044.011.045.009.044.007.045.006.045.004.045.002.045.001.045v17l-.001.045-.002.045-.004.045-.006.045-.007.045-.009.044-.011.045-.012.044-.013.044-.015.044-.017.043-.018.044-.02.043-.021.043-.023.043-.024.043-.026.043-.027.042-.029.042-.03.042-.032.042-.033.042-.034.041-.036.041-.037.041-.039.041-.04.041-.041.04-.043.04-.044.04-.045.04-.047.039-.048.039-.05.039-.051.039-.052.038-.053.038-.055.038-.055.038-.058.037-.058.037-.06.037-.06.036-.062.036-.064.036-.064.036-.066.035-.067.035-.068.035-.069.035-.07.034-.071.034-.073.033-.074.033-.15.066-.155.064-.16.063-.163.061-.168.06-.172.059-.175.057-.18.056-.183.054-.187.053-.191.051-.194.05-.198.048-.201.046-.205.045-.208.043-.211.041-.214.04-.217.038-.22.036-.223.034-.225.032-.229.031-.231.028-.233.027-.236.024-.239.023-.241.02-.242.019-.246.016-.247.015-.249.012-.251.01-.253.008-.255.005-.256.004-.258.001-.258-.001-.256-.004-.255-.005-.253-.008-.251-.01-.249-.012-.247-.015-.245-.016-.243-.019-.241-.02-.238-.023-.236-.024-.234-.027-.231-.028-.228-.031-.226-.032-.223-.034-.22-.036-.217-.038-.214-.04-.211-.041-.208-.043-.204-.045-.201-.046-.198-.048-.195-.05-.19-.051-.187-.053-.184-.054-.179-.056-.176-.057-.172-.059-.167-.06-.164-.061-.159-.063-.155-.064-.151-.066-.074-.033-.072-.033-.072-.034-.07-.034-.069-.035-.068-.035-.067-.035-.066-.035-.064-.036-.063-.036-.062-.036-.061-.036-.06-.037-.058-.037-.057-.037-.056-.038-.055-.038-.053-.038-.052-.038-.051-.039-.049-.039-.049-.039-.046-.039-.046-.04-.044-.04-.043-.04-.041-.04-.04-.041-.039-.041-.037-.041-.036-.041-.034-.041-.033-.042-.032-.042-.03-.042-.029-.042-.027-.042-.026-.043-.024-.043-.023-.043-.021-.043-.02-.043-.018-.044-.017-.043-.015-.044-.013-.044-.012-.044-.011-.045-.009-.044-.007-.045-.006-.045-.004-.045-.002-.045-.001-.045v-17l.001-.045.002-.045.004-.045.006-.045.007-.045.009-.044.011-.045.012-.044.013-.044.015-.044.017-.043.018-.044.02-.043.021-.043.023-.043.024-.043.026-.043.027-.042.029-.042.03-.042.032-.042.033-.042.034-.041.036-.041.037-.041.039-.041.04-.041.041-.04.043-.04.044-.04.046-.04.046-.039.049-.039.049-.039.051-.039.052-.038.053-.038.055-.038.056-.038.057-.037.058-.037.06-.037.061-.036.062-.036.063-.036.064-.036.066-.035.067-.035.068-.035.069-.035.07-.034.072-.034.072-.033.074-.033.151-.066.155-.064.159-.063.164-.061.167-.06.172-.059.176-.057.179-.056.184-.054.187-.053.19-.051.195-.05.198-.048.201-.046.204-.045.208-.043.211-.041.214-.04.217-.038.22-.036.223-.034.226-.032.228-.031.231-.028.234-.027.236-.024.238-.023.241-.02.243-.019.245-.016.247-.015.249-.012.251-.01.253-.008.255-.005.256-.004.258-.001.258.001zm-9.258 20.499v.01l.001.021.003.021.004.022.005.021.006.022.007.022.009.023.01.022.011.023.012.023.013.023.015.023.016.024.017.023.018.024.019.024.021.024.022.025.023.024.024.025.052.049.056.05.061.051.066.051.07.051.075.051.079.052.084.052.088.052.092.052.097.052.102.051.105.052.11.052.114.051.119.051.123.051.127.05.131.05.135.05.139.048.144.049.147.047.152.047.155.047.16.045.163.045.167.043.171.043.176.041.178.041.183.039.187.039.19.037.194.035.197.035.202.033.204.031.209.03.212.029.216.027.219.025.222.024.226.021.23.02.233.018.236.016.24.015.243.012.246.01.249.008.253.005.256.004.259.001.26-.001.257-.004.254-.005.25-.008.247-.011.244-.012.241-.014.237-.016.233-.018.231-.021.226-.021.224-.024.22-.026.216-.027.212-.028.21-.031.205-.031.202-.034.198-.034.194-.036.191-.037.187-.039.183-.04.179-.04.175-.042.172-.043.168-.044.163-.045.16-.046.155-.046.152-.047.148-.048.143-.049.139-.049.136-.05.131-.05.126-.05.123-.051.118-.052.114-.051.11-.052.106-.052.101-.052.096-.052.092-.052.088-.053.083-.051.079-.052.074-.052.07-.051.065-.051.06-.051.056-.05.051-.05.023-.024.023-.025.021-.024.02-.024.019-.024.018-.024.017-.024.015-.023.014-.024.013-.023.012-.023.01-.023.01-.022.008-.022.006-.022.006-.022.004-.022.004-.021.001-.021.001-.021v-4.127l-.077.055-.08.053-.083.054-.085.053-.087.052-.09.052-.093.051-.095.05-.097.05-.1.049-.102.049-.105.048-.106.047-.109.047-.111.046-.114.045-.115.045-.118.044-.12.043-.122.042-.124.042-.126.041-.128.04-.13.04-.132.038-.134.038-.135.037-.138.037-.139.035-.142.035-.143.034-.144.033-.147.032-.148.031-.15.03-.151.03-.153.029-.154.027-.156.027-.158.026-.159.025-.161.024-.162.023-.163.022-.165.021-.166.02-.167.019-.169.018-.169.017-.171.016-.173.015-.173.014-.175.013-.175.012-.177.011-.178.01-.179.008-.179.008-.181.006-.182.005-.182.004-.184.003-.184.002h-.37l-.184-.002-.184-.003-.182-.004-.182-.005-.181-.006-.179-.008-.179-.008-.178-.01-.176-.011-.176-.012-.175-.013-.173-.014-.172-.015-.171-.016-.17-.017-.169-.018-.167-.019-.166-.02-.165-.021-.163-.022-.162-.023-.161-.024-.159-.025-.157-.026-.156-.027-.155-.027-.153-.029-.151-.03-.15-.03-.148-.031-.146-.032-.145-.033-.143-.034-.141-.035-.14-.035-.137-.037-.136-.037-.134-.038-.132-.038-.13-.04-.128-.04-.126-.041-.124-.042-.122-.042-.12-.044-.117-.043-.116-.045-.113-.045-.112-.046-.109-.047-.106-.047-.105-.048-.102-.049-.1-.049-.097-.05-.095-.05-.093-.052-.09-.051-.087-.052-.085-.053-.083-.054-.08-.054-.077-.054v4.127zm0-5.654v.011l.001.021.003.021.004.021.005.022.006.022.007.022.009.022.01.022.011.023.012.023.013.023.015.024.016.023.017.024.018.024.019.024.021.024.022.024.023.025.024.024.052.05.056.05.061.05.066.051.07.051.075.052.079.051.084.052.088.052.092.052.097.052.102.052.105.052.11.051.114.051.119.052.123.05.127.051.131.05.135.049.139.049.144.048.147.048.152.047.155.046.16.045.163.045.167.044.171.042.176.042.178.04.183.04.187.038.19.037.194.036.197.034.202.033.204.032.209.03.212.028.216.027.219.025.222.024.226.022.23.02.233.018.236.016.24.014.243.012.246.01.249.008.253.006.256.003.259.001.26-.001.257-.003.254-.006.25-.008.247-.01.244-.012.241-.015.237-.016.233-.018.231-.02.226-.022.224-.024.22-.025.216-.027.212-.029.21-.03.205-.032.202-.033.198-.035.194-.036.191-.037.187-.039.183-.039.179-.041.175-.042.172-.043.168-.044.163-.045.16-.045.155-.047.152-.047.148-.048.143-.048.139-.05.136-.049.131-.05.126-.051.123-.051.118-.051.114-.052.11-.052.106-.052.101-.052.096-.052.092-.052.088-.052.083-.052.079-.052.074-.051.07-.052.065-.051.06-.05.056-.051.051-.049.023-.025.023-.024.021-.025.02-.024.019-.024.018-.024.017-.024.015-.023.014-.023.013-.024.012-.022.01-.023.01-.023.008-.022.006-.022.006-.022.004-.021.004-.022.001-.021.001-.021v-4.139l-.077.054-.08.054-.083.054-.085.052-.087.053-.09.051-.093.051-.095.051-.097.05-.1.049-.102.049-.105.048-.106.047-.109.047-.111.046-.114.045-.115.044-.118.044-.12.044-.122.042-.124.042-.126.041-.128.04-.13.039-.132.039-.134.038-.135.037-.138.036-.139.036-.142.035-.143.033-.144.033-.147.033-.148.031-.15.03-.151.03-.153.028-.154.028-.156.027-.158.026-.159.025-.161.024-.162.023-.163.022-.165.021-.166.02-.167.019-.169.018-.169.017-.171.016-.173.015-.173.014-.175.013-.175.012-.177.011-.178.009-.179.009-.179.007-.181.007-.182.005-.182.004-.184.003-.184.002h-.37l-.184-.002-.184-.003-.182-.004-.182-.005-.181-.007-.179-.007-.179-.009-.178-.009-.176-.011-.176-.012-.175-.013-.173-.014-.172-.015-.171-.016-.17-.017-.169-.018-.167-.019-.166-.02-.165-.021-.163-.022-.162-.023-.161-.024-.159-.025-.157-.026-.156-.027-.155-.028-.153-.028-.151-.03-.15-.03-.148-.031-.146-.033-.145-.033-.143-.033-.141-.035-.14-.036-.137-.036-.136-.037-.134-.038-.132-.039-.13-.039-.128-.04-.126-.041-.124-.042-.122-.043-.12-.043-.117-.044-.116-.044-.113-.046-.112-.046-.109-.046-.106-.047-.105-.048-.102-.049-.1-.049-.097-.05-.095-.051-.093-.051-.09-.051-.087-.053-.085-.052-.083-.054-.08-.054-.077-.054v4.139zm0-5.666v.011l.001.02.003.022.004.021.005.022.006.021.007.022.009.023.01.022.011.023.012.023.013.023.015.023.016.024.017.024.018.023.019.024.021.025.022.024.023.024.024.025.052.05.056.05.061.05.066.051.07.051.075.052.079.051.084.052.088.052.092.052.097.052.102.052.105.051.11.052.114.051.119.051.123.051.127.05.131.05.135.05.139.049.144.048.147.048.152.047.155.046.16.045.163.045.167.043.171.043.176.042.178.04.183.04.187.038.19.037.194.036.197.034.202.033.204.032.209.03.212.028.216.027.219.025.222.024.226.021.23.02.233.018.236.017.24.014.243.012.246.01.249.008.253.006.256.003.259.001.26-.001.257-.003.254-.006.25-.008.247-.01.244-.013.241-.014.237-.016.233-.018.231-.02.226-.022.224-.024.22-.025.216-.027.212-.029.21-.03.205-.032.202-.033.198-.035.194-.036.191-.037.187-.039.183-.039.179-.041.175-.042.172-.043.168-.044.163-.045.16-.045.155-.047.152-.047.148-.048.143-.049.139-.049.136-.049.131-.051.126-.05.123-.051.118-.052.114-.051.11-.052.106-.052.101-.052.096-.052.092-.052.088-.052.083-.052.079-.052.074-.052.07-.051.065-.051.06-.051.056-.05.051-.049.023-.025.023-.025.021-.024.02-.024.019-.024.018-.024.017-.024.015-.023.014-.024.013-.023.012-.023.01-.022.01-.023.008-.022.006-.022.006-.022.004-.022.004-.021.001-.021.001-.021v-4.153l-.077.054-.08.054-.083.053-.085.053-.087.053-.09.051-.093.051-.095.051-.097.05-.1.049-.102.048-.105.048-.106.048-.109.046-.111.046-.114.046-.115.044-.118.044-.12.043-.122.043-.124.042-.126.041-.128.04-.13.039-.132.039-.134.038-.135.037-.138.036-.139.036-.142.034-.143.034-.144.033-.147.032-.148.032-.15.03-.151.03-.153.028-.154.028-.156.027-.158.026-.159.024-.161.024-.162.023-.163.023-.165.021-.166.02-.167.019-.169.018-.169.017-.171.016-.173.015-.173.014-.175.013-.175.012-.177.01-.178.01-.179.009-.179.007-.181.006-.182.006-.182.004-.184.003-.184.001-.185.001-.185-.001-.184-.001-.184-.003-.182-.004-.182-.006-.181-.006-.179-.007-.179-.009-.178-.01-.176-.01-.176-.012-.175-.013-.173-.014-.172-.015-.171-.016-.17-.017-.169-.018-.167-.019-.166-.02-.165-.021-.163-.023-.162-.023-.161-.024-.159-.024-.157-.026-.156-.027-.155-.028-.153-.028-.151-.03-.15-.03-.148-.032-.146-.032-.145-.033-.143-.034-.141-.034-.14-.036-.137-.036-.136-.037-.134-.038-.132-.039-.13-.039-.128-.041-.126-.041-.124-.041-.122-.043-.12-.043-.117-.044-.116-.044-.113-.046-.112-.046-.109-.046-.106-.048-.105-.048-.102-.048-.1-.05-.097-.049-.095-.051-.093-.051-.09-.052-.087-.052-.085-.053-.083-.053-.08-.054-.077-.054v4.153zm8.74-8.179l-.257.004-.254.005-.25.008-.247.011-.244.012-.241.014-.237.016-.233.018-.231.021-.226.022-.224.023-.22.026-.216.027-.212.028-.21.031-.205.032-.202.033-.198.034-.194.036-.191.038-.187.038-.183.04-.179.041-.175.042-.172.043-.168.043-.163.045-.16.046-.155.046-.152.048-.148.048-.143.048-.139.049-.136.05-.131.05-.126.051-.123.051-.118.051-.114.052-.11.052-.106.052-.101.052-.096.052-.092.052-.088.052-.083.052-.079.052-.074.051-.07.052-.065.051-.06.05-.056.05-.051.05-.023.025-.023.024-.021.024-.02.025-.019.024-.018.024-.017.023-.015.024-.014.023-.013.023-.012.023-.01.023-.01.022-.008.022-.006.023-.006.021-.004.022-.004.021-.001.021-.001.021.001.021.001.021.004.021.004.022.006.021.006.023.008.022.01.022.01.023.012.023.013.023.014.023.015.024.017.023.018.024.019.024.02.025.021.024.023.024.023.025.051.05.056.05.06.05.065.051.07.052.074.051.079.052.083.052.088.052.092.052.096.052.101.052.106.052.11.052.114.052.118.051.123.051.126.051.131.05.136.05.139.049.143.048.148.048.152.048.155.046.16.046.163.045.168.043.172.043.175.042.179.041.183.04.187.038.191.038.194.036.198.034.202.033.205.032.21.031.212.028.216.027.22.026.224.023.226.022.231.021.233.018.237.016.241.014.244.012.247.011.25.008.254.005.257.004.26.001.26-.001.257-.004.254-.005.25-.008.247-.011.244-.012.241-.014.237-.016.233-.018.231-.021.226-.022.224-.023.22-.026.216-.027.212-.028.21-.031.205-.032.202-.033.198-.034.194-.036.191-.038.187-.038.183-.04.179-.041.175-.042.172-.043.168-.043.163-.045.16-.046.155-.046.152-.048.148-.048.143-.048.139-.049.136-.05.131-.05.126-.051.123-.051.118-.051.114-.052.11-.052.106-.052.101-.052.096-.052.092-.052.088-.052.083-.052.079-.052.074-.051.07-.052.065-.051.06-.05.056-.05.051-.05.023-.025.023-.024.021-.024.02-.025.019-.024.018-.024.017-.023.015-.024.014-.023.013-.023.012-.023.01-.023.01-.022.008-.022.006-.023.006-.021.004-.022.004-.021.001-.021.001-.021-.001-.021-.001-.021-.004-.021-.004-.022-.006-.021-.006-.023-.008-.022-.01-.022-.01-.023-.012-.023-.013-.023-.014-.023-.015-.024-.017-.023-.018-.024-.019-.024-.02-.025-.021-.024-.023-.024-.023-.025-.051-.05-.056-.05-.06-.05-.065-.051-.07-.052-.074-.051-.079-.052-.083-.052-.088-.052-.092-.052-.096-.052-.101-.052-.106-.052-.11-.052-.114-.052-.118-.051-.123-.051-.126-.051-.131-.05-.136-.05-.139-.049-.143-.048-.148-.048-.152-.048-.155-.046-.16-.046-.163-.045-.168-.043-.172-.043-.175-.042-.179-.041-.183-.04-.187-.038-.191-.038-.194-.036-.198-.034-.202-.033-.205-.032-.21-.031-.212-.028-.216-.027-.22-.026-.224-.023-.226-.022-.231-.021-.233-.018-.237-.016-.241-.014-.244-.012-.247-.011-.25-.008-.254-.005-.257-.004-.26-.001-.26.001z" transform="scale(.5)"/></symbol></defs><defs><symbol id="clock" width="24" height="24"><path d="M12 2c5.514 0 10 4.486 10 10s-4.486 10-10 10-10-4.486-10-10 4.486-10 10-10zm0-2c-6.627 0-12 5.373-12 12s5.373 12 12 12 12-5.373 12-12-5.373-12-12-12zm5.848 12.459c.202.038.202.333.001.372-1.907.361-6.045 1.111-6.547 1.111-.719 0-1.301-.582-1.301-1.301 0-.512.77-5.447 1.125-7.445.034-.192.312-.181.343.014l.985 6.238 5.394 1.011z" transform="scale(.5)"/></symbol></defs><defs><marker id="arrowhead" markerHeight="12" markerUnits="userSpaceOnUse" markerWidth="12" orient="auto-start-reverse" refX="7.9" refY="5"><path d="M -1 0 L 10 5 L 0 10 z"/></marker></defs><defs><marker id="crosshead" markerHeight="8" markerWidth="15" orient="auto" refX="4" refY="4.5"><path style="stroke-dasharray:0,0" fill="none" stroke="#000" stroke-width="1pt" d="M 1,2 L 6,7 M 6,2 L 1,7"/></marker></defs><defs><marker id="filled-head" markerHeight="28" markerWidth="20" orient="auto" refX="15.5" refY="7"><path d="M 18,7 L9,13 L14,7 L9,1 Z"/></marker></defs><defs><marker id="sequencenumber" markerHeight="40" markerWidth="60" orient="auto" refX="15" refY="15"><circle cx="15" cy="15" r="6"/></marker></defs><g><line x1="64" x2="929" y1="237" y2="237" class="loopLine"/><line x1="929" x2="929" y1="237" y2="471" class="loopLine"/><line x1="64" x2="929" y1="471" y2="471" class="loopLine"/><line x1="64" x2="64" y1="237" y2="471" class="loopLine"/><line style="stroke-dasharray:3,3" x1="64" x2="929" y1="397" y2="397" class="loopLine"/><polygon points="64 237 114 237 114 250 105.6 257 64 257" class="labelBox"/><text style="font-size:16px;font-weight:400" x="89" y="250" alignment-baseline="middle" class="labelText" dominant-baseline="middle" text-anchor="middle">alt</text><text style="font-size:16px;font-weight:400" x="521.5" y="255" class="loopText" text-anchor="middle"><tspan x="521.5">[Course exists]</tspan></text></g><g><line x1="64" x2="2852" y1="589" y2="589" class="loopLine"/><line x1="2852" x2="2852" y1="589" y2="853" class="loopLine"/><line x1="64" x2="2852" y1="853" y2="853" class="loopLine"/><line x1="64" x2="64" y1="589" y2="853" class="loopLine"/><line style="stroke-dasharray:3,3" x1="64" x2="2852" y1="779" y2="779" class="loopLine"/><polygon points="64 589 114 589 114 602 105.6 609 64 609" class="labelBox"/><text style="font-size:16px;font-weight:400" x="89" y="602" alignment-baseline="middle" class="labelText" dominant-baseline="middle" text-anchor="middle">alt</text><text style="font-size:16px;font-weight:400" x="1483" y="607" class="loopText" text-anchor="middle"><tspan x="1483">[OTP is valid]</tspan></text></g><g><line x1="64" x2="1204" y1="1001" y2="1001" class="loopLine"/><line x1="1204" x2="1204" y1="1001" y2="1265" class="loopLine"/><line x1="64" x2="1204" y1="1265" y2="1265" class="loopLine"/><line x1="64" x2="64" y1="1001" y2="1265" class="loopLine"/><line style="stroke-dasharray:3,3" x1="64" x2="1204" y1="1191" y2="1191" class="loopLine"/><polygon points="64 1001 114 1001 114 1014 105.6 1021 64 1021" class="labelBox"/><text style="font-size:16px;font-weight:400" x="89" y="1014" alignment-baseline="middle" class="labelText" dominant-baseline="middle" text-anchor="middle">alt</text><text style="font-size:16px;font-weight:400" x="659" y="1019" class="loopText" text-anchor="middle"><tspan x="659">[File format valid]</tspan></text></g><g><line x1="64" x2="1744.5" y1="1383" y2="1383" class="loopLine"/><line x1="1744.5" x2="1744.5" y1="1383" y2="1647" class="loopLine"/><line x1="64" x2="1744.5" y1="1647" y2="1647" class="loopLine"/><line x1="64" x2="64" y1="1383" y2="1647" class="loopLine"/><line style="stroke-dasharray:3,3" x1="64" x2="1744.5" y1="1573" y2="1573" class="loopLine"/><polygon points="64 1383 114 1383 114 1396 105.6 1403 64 1403" class="labelBox"/><text style="font-size:16px;font-weight:400" x="89" y="1396" alignment-baseline="middle" class="labelText" dominant-baseline="middle" text-anchor="middle">alt</text><text style="font-size:16px;font-weight:400" x="929.25" y="1401" class="loopText" text-anchor="middle"><tspan x="929.25">[Assessment exists]</tspan></text></g><g><line x1="64" x2="1842.5" y1="1957" y2="1957" class="loopLine"/><line x1="1842.5" x2="1842.5" y1="1957" y2="2137" class="loopLine"/><line x1="64" x2="1842.5" y1="2137" y2="2137" class="loopLine"/><line x1="64" x2="64" y1="1957" y2="2137" class="loopLine"/><line style="stroke-dasharray:3,3" x1="64" x2="1842.5" y1="2063" y2="2063" class="loopLine"/><polygon points="64 1957 114 1957 114 1970 105.6 1977 64 1977" class="labelBox"/><text style="font-size:16px;font-weight:400" x="89" y="1970" alignment-baseline="middle" class="labelText" dominant-baseline="middle" text-anchor="middle">alt</text><text style="font-size:16px;font-weight:400" x="978.25" y="1975" class="loopText" text-anchor="middle"><tspan x="978.25">[Feedback available]</tspan></text></g><g class="actor-man actor-top" name="Student"><line id="actor-man-torso36" x1="75" x2="75" y1="25" y2="45"/><line id="actor-man-arms36" x1="57" x2="93" y1="33" y2="33"/><line x1="57" x2="75" y1="60" y2="45"/><line x1="75" x2="91" y1="45" y2="60"/><circle width="150" height="65" cx="75" cy="10" r="15"/><text style="text-anchor:middle;font-size:16px;font-weight:400" x="75" y="67.5" alignment-baseline="central" class="actor actor-man" dominant-baseline="central"><tspan x="75" dy="0">Student</tspan></text></g><text style="font-size:16px;font-weight:400" x="214" y="80" alignment-baseline="middle" class="messageText" dominant-baseline="middle" dy="1em" text-anchor="middle">enrollCourse(userId, courseId)</text><line style="fill:none" x1="76" x2="351" y1="119" y2="119" stroke="none" stroke-width="2" marker-end="url(#arrowhead)" class="messageLine0"/><text style="font-size:16px;font-weight:400" x="497" y="134" alignment-baseline="middle" class="messageText" dominant-baseline="middle" dy="1em" text-anchor="middle">enrollStudent(userId, courseId)</text><line style="fill:none" x1="356" x2="637" y1="173" y2="173" stroke="none" stroke-width="2" marker-end="url(#arrowhead)" class="messageLine0"/><text style="font-size:16px;font-weight:400" x="778" y="188" alignment-baseline="middle" class="messageText" dominant-baseline="middle" dy="1em" text-anchor="middle">checkIfCourseExists(courseId)</text><line style="fill:none" x1="642" x2="914" y1="227" y2="227" stroke="none" stroke-width="2" marker-end="url(#arrowhead)" class="messageLine0"/><text style="font-size:16px;font-weight:400" x="778" y="289" alignment-baseline="middle" class="messageText" dominant-baseline="middle" dy="1em" text-anchor="middle">updateEnrollment(courseId)</text><line style="fill:none" x1="642" x2="914" y1="328" y2="328" stroke="none" stroke-width="2" marker-end="url(#arrowhead)" class="messageLine0"/><text style="font-size:16px;font-weight:400" x="360" y="343" alignment-baseline="middle" class="messageText" dominant-baseline="middle" dy="1em" text-anchor="middle">confirmEnrollment(course)</text><line style="fill:none" x1="640" x2="79" y1="382" y2="382" stroke="none" stroke-width="2" marker-end="url(#arrowhead)" class="messageLine0"/><text style="font-size:16px;font-weight:400" x="360" y="422" alignment-baseline="middle" class="messageText" dominant-baseline="middle" dy="1em" text-anchor="middle">rejectEnrollment(&quot;Course not found&quot;)</text><line style="fill:none" x1="640" x2="79" y1="461" y2="461" stroke="none" stroke-width="2" marker-end="url(#arrowhead)" class="messageLine0"/><text style="font-size:16px;font-weight:400" x="1271" y="486" alignment-baseline="middle" class="messageText" dominant-baseline="middle" dy="1em" text-anchor="middle">requestAttendance(lessonId, otp)</text><line style="fill:none" x1="76" x2="2465.5" y1="525" y2="525" stroke="none" stroke-width="2" marker-end="url(#arrowhead)" class="messageLine0"/><text style="font-size:16px;font-weight:400" x="2595" y="540" alignment-baseline="middle" class="messageText" dominant-baseline="middle" dy="1em" text-anchor="middle">validateOTP(lessonId, otp)</text><line style="fill:none" x1="2470.5" x2="2719.5" y1="579" y2="579" stroke="none" stroke-width="2" marker-end="url(#arrowhead)" class="messageLine0"/><text style="font-size:16px;font-weight:400" x="2725" y="641" alignment-baseline="middle" class="messageText" dominant-baseline="middle" dy="1em" text-anchor="middle">markAttendance(userId, lessonId)</text><path style="fill:none" stroke="none" stroke-width="2" marker-end="url(#arrowhead)" d="M 2724.5,680 C 2784.5,670 2784.5,710 2724.5,700" class="messageLine0"/><text style="font-size:16px;font-weight:400" x="1274" y="725" alignment-baseline="middle" class="messageText" dominant-baseline="middle" dy="1em" text-anchor="middle">confirmAttendance(lessonId)</text><line style="fill:none" x1="2468.5" x2="79" y1="764" y2="764" stroke="none" stroke-width="2" marker-end="url(#arrowhead)" class="messageLine0"/><text style="font-size:16px;font-weight:400" x="1274" y="804" alignment-baseline="middle" class="messageText" dominant-baseline="middle" dy="1em" text-anchor="middle">rejectAttendance(&quot;Invalid OTP&quot;)</text><line style="fill:none" x1="2468.5" x2="79" y1="843" y2="843" stroke="none" stroke-width="2" marker-end="url(#arrowhead)" class="messageLine0"/><text style="font-size:16px;font-weight:400" x="595" y="868" alignment-baseline="middle" class="messageText" dominant-baseline="middle" dy="1em" text-anchor="middle">submitAssignment(assignmentId, file)</text><line style="fill:none" x1="76" x2="1114" y1="907" y2="907" stroke="none" stroke-width="2" marker-end="url(#arrowhead)" class="messageLine0"/><text style="font-size:16px;font-weight:400" x="1119" y="922" alignment-baseline="middle" class="messageText" dominant-baseline="middle" dy="1em" text-anchor="middle">validateFileFormat(file)</text><path style="fill:none" stroke="none" stroke-width="2" marker-end="url(#arrowhead)" d="M 1119,961 C 1179,951 1179,991 1119,981" class="messageLine0"/><text style="font-size:16px;font-weight:400" x="1119" y="1053" alignment-baseline="middle" class="messageText" dominant-baseline="middle" dy="1em" text-anchor="middle">storeFile(file)</text><path style="fill:none" stroke="none" stroke-width="2" marker-end="url(#arrowhead)" d="M 1119,1092 C 1179,1082 1179,1122 1119,1112" class="messageLine0"/><text style="font-size:16px;font-weight:400" x="598" y="1137" alignment-baseline="middle" class="messageText" dominant-baseline="middle" dy="1em" text-anchor="middle">confirmSubmission(assignmentId)</text><line style="fill:none" x1="1117" x2="79" y1="1176" y2="1176" stroke="none" stroke-width="2" marker-end="url(#arrowhead)" class="messageLine0"/><text style="font-size:16px;font-weight:400" x="598" y="1216" alignment-baseline="middle" class="messageText" dominant-baseline="middle" dy="1em" text-anchor="middle">rejectSubmission(&quot;Invalid file format&quot;)</text><line style="fill:none" x1="1117" x2="79" y1="1255" y2="1255" stroke="none" stroke-width="2" marker-end="url(#arrowhead)" class="messageLine0"/><text style="font-size:16px;font-weight:400" x="696" y="1280" alignment-baseline="middle" class="messageText" dominant-baseline="middle" dy="1em" text-anchor="middle">attemptAssessment(assessmentId, submission)</text><line style="fill:none" x1="76" x2="1315.5" y1="1319" y2="1319" stroke="none" stroke-width="2" marker-end="url(#arrowhead)" class="messageLine0"/><text style="font-size:16px;font-weight:400" x="1474" y="1334" alignment-baseline="middle" class="messageText" dominant-baseline="middle" dy="1em" text-anchor="middle">validateAssessment(assessmentId)</text><line style="fill:none" x1="1320.5" x2="1627.5" y1="1373" y2="1373" stroke="none" stroke-width="2" marker-end="url(#arrowhead)" class="messageLine0"/><text style="font-size:16px;font-weight:400" x="1633" y="1435" alignment-baseline="middle" class="messageText" dominant-baseline="middle" dy="1em" text-anchor="middle">storeSubmission(submission)</text><path style="fill:none" stroke="none" stroke-width="2" marker-end="url(#arrowhead)" d="M 1632.5,1474 C 1692.5,1464 1692.5,1504 1632.5,1494" class="messageLine0"/><text style="font-size:16px;font-weight:400" x="699" y="1519" alignment-baseline="middle" class="messageText" dominant-baseline="middle" dy="1em" text-anchor="middle">confirmAssessmentAttempt(assessmentId)</text><line style="fill:none" x1="1318.5" x2="79" y1="1558" y2="1558" stroke="none" stroke-width="2" marker-end="url(#arrowhead)" class="messageLine0"/><text style="font-size:16px;font-weight:400" x="699" y="1598" alignment-baseline="middle" class="messageText" dominant-baseline="middle" dy="1em" text-anchor="middle">rejectAssessmentAttempt(&quot;Assessment not found&quot;)</text><line style="fill:none" x1="1318.5" x2="79" y1="1637" y2="1637" stroke="none" stroke-width="2" marker-end="url(#arrowhead)" class="messageLine0"/><text style="font-size:16px;font-weight:400" x="1054" y="1662" alignment-baseline="middle" class="messageText" dominant-baseline="middle" dy="1em" text-anchor="middle">generatePerformanceReport(userId)</text><line style="fill:none" x1="76" x2="2032" y1="1701" y2="1701" stroke="none" stroke-width="2" marker-end="url(#arrowhead)" class="messageLine0"/><text style="font-size:16px;font-weight:400" x="2151" y="1716" alignment-baseline="middle" class="messageText" dominant-baseline="middle" dy="1em" text-anchor="middle">generateReport(userId)</text><line style="fill:none" x1="2037" x2="2265" y1="1755" y2="1755" stroke="none" stroke-width="2" marker-end="url(#arrowhead)" class="messageLine0"/><text style="font-size:16px;font-weight:400" x="1057" y="1770" alignment-baseline="middle" class="messageText" dominant-baseline="middle" dy="1em" text-anchor="middle">deliverReport(report)</text><line style="fill:none" x1="2035" x2="79" y1="1809" y2="1809" stroke="none" stroke-width="2" marker-end="url(#arrowhead)" class="messageLine0"/><text style="font-size:16px;font-weight:400" x="952" y="1824" alignment-baseline="middle" class="messageText" dominant-baseline="middle" dy="1em" text-anchor="middle">requestFeedback(assignmentId)</text><line style="fill:none" x1="76" x2="1827.5" y1="1863" y2="1863" stroke="none" stroke-width="2" marker-end="url(#arrowhead)" class="messageLine0"/><text style="font-size:16px;font-weight:400" x="1833" y="1878" alignment-baseline="middle" class="messageText" dominant-baseline="middle" dy="1em" text-anchor="middle">checkIfFeedbackAvailable(assignmentId)</text><path style="fill:none" stroke="none" stroke-width="2" marker-end="url(#arrowhead)" d="M 1832.5,1917 C 1892.5,1907 1892.5,1947 1832.5,1937" class="messageLine0"/><text style="font-size:16px;font-weight:400" x="955" y="2009" alignment-baseline="middle" class="messageText" dominant-baseline="middle" dy="1em" text-anchor="middle">deliverFeedback(feedback)</text><line style="fill:none" x1="1830.5" x2="79" y1="2048" y2="2048" stroke="none" stroke-width="2" marker-end="url(#arrowhead)" class="messageLine0"/><text style="font-size:16px;font-weight:400" x="955" y="2088" alignment-baseline="middle" class="messageText" dominant-baseline="middle" dy="1em" text-anchor="middle">rejectFeedback(&quot;No feedback available&quot;)</text><line style="fill:none" x1="1830.5" x2="79" y1="2127" y2="2127" stroke="none" stroke-width="2" marker-end="url(#arrowhead)" class="messageLine0"/><g class="actor-man actor-bottom" name="Student"><line id="actor-man-torso47" x1="75" x2="75" y1="2182" y2="2202"/><line id="actor-man-arms47" x1="57" x2="93" y1="2190" y2="2190"/><line x1="57" x2="75" y1="2217" y2="2202"/><line x1="75" x2="91" y1="2202" y2="2217"/><circle width="150" height="65" cx="75" cy="2167" r="15"/><text style="text-anchor:middle;font-size:16px;font-weight:400" x="75" y="2224.5" alignment-baseline="central" class="actor actor-man" dominant-baseline="central"><tspan x="75" dy="0">Student</tspan></text></g></svg>